<?xml version="1.0" standalone="no"?>
<!DOCTYPE svg PUBLIC "-//W3C//DTD SVG 20010904//EN"
 "http://www.w3.org/TR/2001/REC-SVG-20010904/DTD/svg10.dtd">
<svg version="1.0" xmlns="http://www.w3.org/2000/svg"
 width="1096.000000pt" height="1096.000000pt" viewBox="0 0 1096.000000 1096.000000"
 preserveAspectRatio="xMidYMid meet">
<metadata>
Created by potrace 1.11, written by Peter Selinger 2001-2013
</metadata>
<g transform="translate(0.000000,1096.000000) scale(0.100000,-0.100000)"
fill="#000000" stroke="none">
<path d="M3150 8977 c-60 -27 -99 -69 -143 -155 -87 -168 -221 -471 -627
-1412 -257 -597 -392 -899 -518 -1165 -83 -175 -220 -445 -226 -445 -1 0 -90
-16 -197 -35 -354 -65 -699 -144 -1099 -254 -309 -84 -305 -81 -80 -73 333 12
1407 8 1620 -6 608 -40 1067 -102 1488 -202 394 -94 745 -231 972 -377 105
-69 159 -112 282 -231 78 -75 113 -100 180 -132 88 -41 192 -70 323 -91 125
-20 489 -17 675 6 85 10 168 19 184 19 l30 1 73 -245 c40 -135 94 -315 120
-400 185 -620 441 -1268 539 -1366 61 -61 104 -77 188 -72 58 4 85 12 141 41
437 230 1059 1333 1585 2810 l67 188 166 89 c433 232 1413 805 1722 1008 471
309 457 350 -65 189 -231 -72 -592 -201 -1670 -599 -1153 -425 -1266 -462
-1660 -546 l-175 -37 -621 -3 c-588 -3 -628 -2 -742 18 -65 11 -122 20 -124
20 -3 0 -29 66 -58 148 -143 405 -315 807 -553 1292 -508 1033 -1168 1869
-1589 2011 -64 21 -168 24 -208 6z"/>
</g>
</svg>
