<?xml version="1.0" standalone="no"?>
<!DOCTYPE svg PUBLIC "-//W3C//DTD SVG 20010904//EN"
 "http://www.w3.org/TR/2001/REC-SVG-20010904/DTD/svg10.dtd">
<svg version="1.0" xmlns="http://www.w3.org/2000/svg"
 width="1096.000000pt" height="1096.000000pt" viewBox="0 0 1096.000000 1096.000000"
 preserveAspectRatio="xMidYMid meet">
<metadata>
Created by potrace 1.11, written by Peter Selinger 2001-2013
</metadata>
<g transform="translate(0.000000,1096.000000) scale(0.100000,-0.100000)"
fill="#000000" stroke="none">
<path d="M3129 8967 c-80 -42 -96 -72 -317 -562 -52 -115 -173 -392 -269 -615
-371 -860 -429 -993 -548 -1256 -130 -285 -351 -734 -362 -734 -27 0 -444 -82
-643 -126 -251 -55 -330 -75 -650 -163 -309 -84 -305 -81 -80 -73 107 4 474 7
815 6 648 0 860 -9 1305 -55 523 -53 1003 -147 1360 -267 387 -130 622 -262
848 -476 134 -126 195 -164 337 -209 149 -46 209 -52 525 -51 231 1 324 6 427
21 l131 19 47 -156 c282 -931 407 -1291 575 -1661 86 -188 140 -247 243 -269
425 -87 1183 1132 1807 2905 23 66 51 128 61 137 11 9 79 48 153 87 348 183
1656 947 1696 991 3 3 57 40 120 82 384 256 331 279 -240 102 -114 -35 -589
-204 -990 -352 -1727 -637 -1706 -630 -1985 -702 -82 -22 -220 -54 -305 -72
l-155 -33 -597 -3 c-564 -3 -604 -2 -725 18 -70 11 -136 23 -145 26 -9 3 -24
28 -34 57 -32 99 -164 445 -238 623 -571 1379 -1381 2546 -1911 2756 -94 37
-192 39 -256 5z"/>
</g>
</svg>
